<svg width="186" height="46" viewBox="0 0 186 46" fill="none" xmlns="http://www.w3.org/2000/svg">
<path d="M84.617 7.653V10.909H80.51V31H76.255V10.909H72.185V7.653H84.617ZM90.822 21.898V31H86.567V7.653H95.151C97.8397 7.653 99.184 8.874 99.184 11.316V18.235C99.184 20.2577 98.2837 21.4417 96.483 21.787L100.368 31H95.78L92.228 21.898H90.822ZM90.822 10.909V18.753H93.893C94.2877 18.753 94.559 18.6913 94.707 18.568C94.855 18.42 94.929 18.1487 94.929 17.754V11.908C94.929 11.5133 94.855 11.2543 94.707 11.131C94.559 10.983 94.2877 10.909 93.893 10.909H90.822ZM110.753 7.653H115.008V27.337C115.008 29.779 113.664 31 110.975 31H106.461C103.773 31 102.428 29.779 102.428 27.337V7.653H106.683V26.745C106.683 27.1397 106.757 27.411 106.905 27.559C107.053 27.6823 107.325 27.744 107.719 27.744H109.68C110.1 27.744 110.383 27.6823 110.531 27.559C110.679 27.411 110.753 27.1397 110.753 26.745V7.653ZM130.718 15.386H126.426V11.76C126.426 11.3653 126.352 11.1063 126.204 10.983C126.056 10.835 125.785 10.761 125.39 10.761H123.651C123.257 10.761 122.985 10.835 122.837 10.983C122.689 11.1063 122.615 11.3653 122.615 11.76V26.93C122.615 27.3247 122.689 27.596 122.837 27.744C122.985 27.8673 123.257 27.929 123.651 27.929H125.39C125.785 27.929 126.056 27.8673 126.204 27.744C126.352 27.596 126.426 27.3247 126.426 26.93V23.378H130.718V27.374C130.718 29.816 129.374 31.037 126.685 31.037H122.356C119.668 31.037 118.323 29.816 118.323 27.374V11.316C118.323 8.874 119.668 7.653 122.356 7.653H126.685C129.374 7.653 130.718 8.874 130.718 11.316V15.386ZM147.41 7.653L142.6 19.271L147.373 31H142.785L138.16 19.271L142.822 7.653H147.41ZM133.72 31V7.653H137.975V31H133.72ZM153.766 27.744H160.87V31H149.474V7.653H160.574V10.909H153.766V17.384H159.501V20.677H153.766V27.744ZM167.568 21.898V31H163.313V7.653H171.897C174.586 7.653 175.93 8.874 175.93 11.316V18.235C175.93 20.2577 175.03 21.4417 173.229 21.787L177.114 31H172.526L168.974 21.898H167.568ZM167.568 10.909V18.753H170.639C171.034 18.753 171.305 18.6913 171.453 18.568C171.601 18.42 171.675 18.1487 171.675 17.754V11.908C171.675 11.5133 171.601 11.2543 171.453 11.131C171.305 10.983 171.034 10.909 170.639 10.909H167.568Z" fill="#2A9D8F"/>
<path d="M75.575 42V37.205H74.119V36.785H77.479V37.205H76.03V42H75.575ZM78.2469 42V36.785H79.9969C80.3282 36.785 80.6199 36.8503 80.8719 36.981C81.1239 37.1117 81.3199 37.296 81.4599 37.534C81.6045 37.772 81.6769 38.0473 81.6769 38.36C81.6769 38.7333 81.5742 39.053 81.3689 39.319C81.1682 39.5803 80.8975 39.76 80.5569 39.858L81.7889 42H81.2499L79.9549 39.718L80.3329 39.935H78.7019V42H78.2469ZM78.7019 39.515H80.0109C80.2489 39.515 80.4589 39.4683 80.6409 39.375C80.8229 39.277 80.9652 39.1417 81.0679 38.969C81.1705 38.7917 81.2219 38.5863 81.2219 38.353C81.2219 38.1197 81.1705 37.919 81.0679 37.751C80.9652 37.5783 80.8229 37.4453 80.6409 37.352C80.4589 37.254 80.2489 37.205 80.0109 37.205H78.7019V39.515ZM82.1717 42L84.0897 36.785H84.5587L86.4767 42H85.9867L85.5107 40.67H83.1377L82.6547 42H82.1717ZM83.2847 40.25H85.3567L84.2367 37.135H84.4047L83.2847 40.25ZM87.2498 42V36.785H87.6348L90.7918 41.314H90.6448V36.785H91.0998V42H90.7148L87.5438 37.443H87.7048V42H87.2498ZM94.1049 42.084C93.7736 42.084 93.4749 42.021 93.2089 41.895C92.9476 41.769 92.7283 41.6033 92.5509 41.398C92.3783 41.1927 92.2546 40.971 92.1799 40.733L92.5859 40.586C92.7166 40.9407 92.9103 41.2113 93.1669 41.398C93.4283 41.5847 93.7386 41.678 94.0979 41.678C94.3359 41.678 94.5436 41.6383 94.7209 41.559C94.9029 41.4797 95.0453 41.3677 95.1479 41.223C95.2506 41.0783 95.3019 40.908 95.3019 40.712C95.3019 40.4413 95.2249 40.2313 95.0709 40.082C94.9216 39.9327 94.7256 39.8253 94.4829 39.76L93.5309 39.48C93.1436 39.368 92.8566 39.1883 92.6699 38.941C92.4879 38.689 92.3969 38.4043 92.3969 38.087C92.3969 37.8117 92.4623 37.5713 92.5929 37.366C92.7283 37.156 92.9103 36.9927 93.1389 36.876C93.3676 36.7593 93.6266 36.701 93.9159 36.701C94.2193 36.701 94.4899 36.7593 94.7279 36.876C94.9706 36.988 95.1736 37.1373 95.3369 37.324C95.5049 37.506 95.6239 37.709 95.6939 37.933L95.2949 38.08C95.1783 37.758 94.9986 37.5153 94.7559 37.352C94.5133 37.184 94.2356 37.1 93.9229 37.1C93.7176 37.1 93.5333 37.1397 93.3699 37.219C93.2066 37.2983 93.0783 37.4103 92.9849 37.555C92.8916 37.6997 92.8449 37.87 92.8449 38.066C92.8449 38.304 92.9126 38.507 93.0479 38.675C93.1833 38.843 93.4096 38.976 93.7269 39.074L94.5809 39.326C94.9543 39.438 95.2413 39.6107 95.4419 39.844C95.6473 40.0727 95.7499 40.355 95.7499 40.691C95.7499 40.9663 95.6799 41.209 95.5399 41.419C95.3999 41.6243 95.2039 41.7877 94.9519 41.909C94.7046 42.0257 94.4223 42.084 94.1049 42.084ZM96.909 42V36.785H98.659C98.9903 36.785 99.282 36.8503 99.534 36.981C99.786 37.1117 99.982 37.296 100.122 37.534C100.267 37.772 100.339 38.0473 100.339 38.36C100.339 38.6727 100.267 38.948 100.122 39.186C99.982 39.4193 99.786 39.6037 99.534 39.739C99.2866 39.8697 98.995 39.935 98.659 39.935H97.364V42H96.909ZM97.364 39.515H98.673C98.911 39.515 99.121 39.4683 99.303 39.375C99.485 39.277 99.6273 39.1417 99.73 38.969C99.8326 38.7917 99.884 38.5863 99.884 38.353C99.884 38.1197 99.8326 37.919 99.73 37.751C99.6273 37.5783 99.485 37.4453 99.303 37.352C99.121 37.254 98.911 37.205 98.673 37.205H97.364V39.515ZM103.843 42.084C103.484 42.084 103.148 42.0187 102.835 41.888C102.522 41.7527 102.247 41.566 102.009 41.328C101.776 41.0853 101.591 40.8007 101.456 40.474C101.325 40.1427 101.26 39.781 101.26 39.389C101.26 38.9923 101.325 38.6307 101.456 38.304C101.591 37.9773 101.778 37.695 102.016 37.457C102.254 37.2143 102.527 37.0277 102.835 36.897C103.148 36.7663 103.484 36.701 103.843 36.701C104.198 36.701 104.531 36.7663 104.844 36.897C105.157 37.0277 105.43 37.2143 105.663 37.457C105.901 37.695 106.088 37.9797 106.223 38.311C106.358 38.6377 106.426 38.997 106.426 39.389C106.426 39.781 106.358 40.1427 106.223 40.474C106.088 40.8007 105.901 41.0853 105.663 41.328C105.43 41.566 105.157 41.7527 104.844 41.888C104.531 42.0187 104.198 42.084 103.843 42.084ZM103.843 41.65C104.156 41.65 104.443 41.5917 104.704 41.475C104.965 41.3583 105.189 41.195 105.376 40.985C105.567 40.775 105.714 40.5347 105.817 40.264C105.92 39.9887 105.971 39.697 105.971 39.389C105.971 39.0857 105.92 38.7987 105.817 38.528C105.714 38.2527 105.567 38.01 105.376 37.8C105.189 37.59 104.965 37.4267 104.704 37.31C104.447 37.1887 104.16 37.128 103.843 37.128C103.526 37.128 103.236 37.1887 102.975 37.31C102.718 37.4267 102.494 37.59 102.303 37.8C102.116 38.01 101.972 38.2527 101.869 38.528C101.766 38.7987 101.715 39.0857 101.715 39.389C101.715 39.697 101.766 39.9887 101.869 40.264C101.972 40.5347 102.116 40.775 102.303 40.985C102.494 41.195 102.721 41.3583 102.982 41.475C103.243 41.5917 103.53 41.65 103.843 41.65ZM107.58 42V36.785H109.33C109.661 36.785 109.953 36.8503 110.205 36.981C110.457 37.1117 110.653 37.296 110.793 37.534C110.938 37.772 111.01 38.0473 111.01 38.36C111.01 38.7333 110.907 39.053 110.702 39.319C110.501 39.5803 110.231 39.76 109.89 39.858L111.122 42H110.583L109.288 39.718L109.666 39.935H108.035V42H107.58ZM108.035 39.515H109.344C109.582 39.515 109.792 39.4683 109.974 39.375C110.156 39.277 110.298 39.1417 110.401 38.969C110.504 38.7917 110.555 38.5863 110.555 38.353C110.555 38.1197 110.504 37.919 110.401 37.751C110.298 37.5783 110.156 37.4453 109.974 37.352C109.792 37.254 109.582 37.205 109.344 37.205H108.035V39.515ZM112.824 42V37.205H111.368V36.785H114.728V37.205H113.279V42H112.824ZM114.608 42L116.526 36.785H116.995L118.913 42H118.423L117.947 40.67H115.574L115.091 42H114.608ZM115.721 40.25H117.793L116.673 37.135H116.841L115.721 40.25ZM120.255 42V37.205H118.799V36.785H122.159V37.205H120.71V42H120.255ZM122.927 42V36.785H123.382V42H122.927ZM127.119 42.084C126.76 42.084 126.424 42.0187 126.111 41.888C125.799 41.7527 125.523 41.566 125.285 41.328C125.052 41.0853 124.868 40.8007 124.732 40.474C124.602 40.1427 124.536 39.781 124.536 39.389C124.536 38.9923 124.602 38.6307 124.732 38.304C124.868 37.9773 125.054 37.695 125.292 37.457C125.53 37.2143 125.803 37.0277 126.111 36.897C126.424 36.7663 126.76 36.701 127.119 36.701C127.474 36.701 127.808 36.7663 128.12 36.897C128.433 37.0277 128.706 37.2143 128.939 37.457C129.177 37.695 129.364 37.9797 129.499 38.311C129.635 38.6377 129.702 38.997 129.702 39.389C129.702 39.781 129.635 40.1427 129.499 40.474C129.364 40.8007 129.177 41.0853 128.939 41.328C128.706 41.566 128.433 41.7527 128.12 41.888C127.808 42.0187 127.474 42.084 127.119 42.084ZM127.119 41.65C127.432 41.65 127.719 41.5917 127.98 41.475C128.242 41.3583 128.466 41.195 128.652 40.985C128.844 40.775 128.991 40.5347 129.093 40.264C129.196 39.9887 129.247 39.697 129.247 39.389C129.247 39.0857 129.196 38.7987 129.093 38.528C128.991 38.2527 128.844 38.01 128.652 37.8C128.466 37.59 128.242 37.4267 127.98 37.31C127.724 37.1887 127.437 37.128 127.119 37.128C126.802 37.128 126.513 37.1887 126.251 37.31C125.995 37.4267 125.771 37.59 125.579 37.8C125.393 38.01 125.248 38.2527 125.145 38.528C125.043 38.7987 124.991 39.0857 124.991 39.389C124.991 39.697 125.043 39.9887 125.145 40.264C125.248 40.5347 125.393 40.775 125.579 40.985C125.771 41.195 125.997 41.3583 126.258 41.475C126.52 41.5917 126.807 41.65 127.119 41.65ZM130.856 42V36.785H131.241L134.398 41.314H134.251V36.785H134.706V42H134.321L131.15 37.443H131.311V42H130.856ZM138.314 42.084C138.048 42.084 137.807 42.0327 137.593 41.93C137.383 41.8227 137.215 41.6757 137.089 41.489C136.967 41.2977 136.907 41.076 136.907 40.824C136.907 40.614 136.944 40.4297 137.019 40.271C137.098 40.1077 137.196 39.9607 137.313 39.83C137.429 39.6993 137.555 39.5827 137.691 39.48C137.826 39.3773 137.954 39.284 138.076 39.2L138.356 39.011C138.514 38.9037 138.659 38.794 138.79 38.682C138.925 38.57 139.035 38.4487 139.119 38.318C139.203 38.1827 139.245 38.0333 139.245 37.87C139.245 37.6553 139.172 37.478 139.028 37.338C138.888 37.198 138.715 37.128 138.51 37.128C138.295 37.128 138.118 37.2003 137.978 37.345C137.842 37.485 137.775 37.6623 137.775 37.877C137.775 38.0263 137.807 38.1687 137.873 38.304C137.943 38.4393 138.029 38.5653 138.132 38.682C138.234 38.7987 138.337 38.9107 138.44 39.018L141.345 42H140.729L138.09 39.326C137.982 39.214 137.868 39.088 137.747 38.948C137.63 38.8033 137.53 38.6447 137.446 38.472C137.362 38.2947 137.32 38.101 137.32 37.891C137.32 37.6577 137.371 37.4523 137.474 37.275C137.581 37.0977 137.723 36.9577 137.901 36.855C138.083 36.7523 138.286 36.701 138.51 36.701C138.724 36.701 138.92 36.7523 139.098 36.855C139.28 36.953 139.424 37.0907 139.532 37.268C139.639 37.4407 139.693 37.6413 139.693 37.87C139.693 38.108 139.637 38.318 139.525 38.5C139.417 38.6773 139.282 38.8337 139.119 38.969C138.96 39.1043 138.804 39.2257 138.65 39.333L138.377 39.515C138.209 39.6363 138.048 39.76 137.894 39.886C137.744 40.0073 137.621 40.1427 137.523 40.292C137.429 40.4413 137.383 40.6163 137.383 40.817C137.383 41.0783 137.469 41.2837 137.642 41.433C137.819 41.5823 138.045 41.657 138.321 41.657C138.512 41.657 138.678 41.6243 138.818 41.559C138.962 41.4937 139.088 41.4097 139.196 41.307C139.308 41.1997 139.408 41.0853 139.497 40.964C139.585 40.838 139.667 40.7167 139.742 40.6L140.547 39.403H141.072L140.141 40.817C140.066 40.9337 139.975 41.0643 139.868 41.209C139.76 41.3537 139.634 41.4937 139.49 41.629C139.35 41.7597 139.182 41.8693 138.986 41.958C138.794 42.042 138.57 42.084 138.314 42.084ZM143.421 42V36.785H143.876V41.58H146.221V42H143.421ZM149.439 42.084C149.079 42.084 148.743 42.0187 148.431 41.888C148.118 41.7527 147.843 41.566 147.605 41.328C147.371 41.0853 147.187 40.8007 147.052 40.474C146.921 40.1427 146.856 39.781 146.856 39.389C146.856 38.9923 146.921 38.6307 147.052 38.304C147.187 37.9773 147.374 37.695 147.612 37.457C147.85 37.2143 148.123 37.0277 148.431 36.897C148.743 36.7663 149.079 36.701 149.439 36.701C149.793 36.701 150.127 36.7663 150.44 36.897C150.752 37.0277 151.025 37.2143 151.259 37.457C151.497 37.695 151.683 37.9797 151.819 38.311C151.954 38.6377 152.022 38.997 152.022 39.389C152.022 39.781 151.954 40.1427 151.819 40.474C151.683 40.8007 151.497 41.0853 151.259 41.328C151.025 41.566 150.752 41.7527 150.44 41.888C150.127 42.0187 149.793 42.084 149.439 42.084ZM149.439 41.65C149.751 41.65 150.038 41.5917 150.3 41.475C150.561 41.3583 150.785 41.195 150.972 40.985C151.163 40.775 151.31 40.5347 151.413 40.264C151.515 39.9887 151.567 39.697 151.567 39.389C151.567 39.0857 151.515 38.7987 151.413 38.528C151.31 38.2527 151.163 38.01 150.972 37.8C150.785 37.59 150.561 37.4267 150.3 37.31C150.043 37.1887 149.756 37.128 149.439 37.128C149.121 37.128 148.832 37.1887 148.571 37.31C148.314 37.4267 148.09 37.59 147.899 37.8C147.712 38.01 147.567 38.2527 147.465 38.528C147.362 38.7987 147.311 39.0857 147.311 39.389C147.311 39.697 147.362 39.9887 147.465 40.264C147.567 40.5347 147.712 40.775 147.899 40.985C148.09 41.195 148.316 41.3583 148.578 41.475C148.839 41.5917 149.126 41.65 149.439 41.65ZM155.535 42.084C155.166 42.084 154.828 42.0187 154.52 41.888C154.216 41.7527 153.953 41.566 153.729 41.328C153.505 41.0853 153.33 40.8007 153.204 40.474C153.082 40.1473 153.022 39.788 153.022 39.396C153.022 39.004 153.082 38.6447 153.204 38.318C153.33 37.9913 153.505 37.7067 153.729 37.464C153.957 37.2213 154.223 37.0347 154.527 36.904C154.835 36.7687 155.171 36.701 155.535 36.701C155.894 36.701 156.214 36.764 156.494 36.89C156.778 37.016 157.016 37.177 157.208 37.373C157.404 37.569 157.544 37.772 157.628 37.982L157.208 38.178C157.068 37.856 156.853 37.6017 156.564 37.415C156.279 37.2237 155.936 37.128 155.535 37.128C155.138 37.128 154.783 37.2237 154.471 37.415C154.158 37.6063 153.913 37.8723 153.736 38.213C153.563 38.549 153.477 38.9433 153.477 39.396C153.477 39.844 153.563 40.2383 153.736 40.579C153.913 40.9197 154.156 41.1833 154.464 41.37C154.776 41.5567 155.133 41.65 155.535 41.65C155.894 41.65 156.216 41.5707 156.501 41.412C156.79 41.2487 157.016 41.0293 157.18 40.754C157.348 40.474 157.432 40.1543 157.432 39.795V39.55L157.635 39.767H155.535V39.361H157.887V39.753C157.887 40.0797 157.826 40.3853 157.705 40.67C157.588 40.95 157.425 41.1973 157.215 41.412C157.005 41.622 156.755 41.7877 156.466 41.909C156.181 42.0257 155.871 42.084 155.535 42.084ZM158.972 42V36.785H159.427V42H158.972ZM162.43 42.084C162.099 42.084 161.8 42.021 161.534 41.895C161.273 41.769 161.053 41.6033 160.876 41.398C160.703 41.1927 160.58 40.971 160.505 40.733L160.911 40.586C161.042 40.9407 161.235 41.2113 161.492 41.398C161.753 41.5847 162.064 41.678 162.423 41.678C162.661 41.678 162.869 41.6383 163.046 41.559C163.228 41.4797 163.37 41.3677 163.473 41.223C163.576 41.0783 163.627 40.908 163.627 40.712C163.627 40.4413 163.55 40.2313 163.396 40.082C163.247 39.9327 163.051 39.8253 162.808 39.76L161.856 39.48C161.469 39.368 161.182 39.1883 160.995 38.941C160.813 38.689 160.722 38.4043 160.722 38.087C160.722 37.8117 160.787 37.5713 160.918 37.366C161.053 37.156 161.235 36.9927 161.464 36.876C161.693 36.7593 161.952 36.701 162.241 36.701C162.544 36.701 162.815 36.7593 163.053 36.876C163.296 36.988 163.499 37.1373 163.662 37.324C163.83 37.506 163.949 37.709 164.019 37.933L163.62 38.08C163.503 37.758 163.324 37.5153 163.081 37.352C162.838 37.184 162.561 37.1 162.248 37.1C162.043 37.1 161.858 37.1397 161.695 37.219C161.532 37.2983 161.403 37.4103 161.31 37.555C161.217 37.6997 161.17 37.87 161.17 38.066C161.17 38.304 161.238 38.507 161.373 38.675C161.508 38.843 161.735 38.976 162.052 39.074L162.906 39.326C163.279 39.438 163.566 39.6107 163.767 39.844C163.972 40.0727 164.075 40.355 164.075 40.691C164.075 40.9663 164.005 41.209 163.865 41.419C163.725 41.6243 163.529 41.7877 163.277 41.909C163.03 42.0257 162.747 42.084 162.43 42.084ZM166.151 42V37.205H164.695V36.785H168.055V37.205H166.606V42H166.151ZM168.823 42V36.785H169.278V42H168.823ZM172.932 42.084C172.572 42.084 172.241 42.0187 171.938 41.888C171.634 41.7527 171.368 41.5637 171.14 41.321C170.916 41.0783 170.741 40.7937 170.615 40.467C170.493 40.1403 170.433 39.781 170.433 39.389C170.433 39.0017 170.493 38.6447 170.615 38.318C170.741 37.9867 170.916 37.702 171.14 37.464C171.368 37.2213 171.634 37.0347 171.938 36.904C172.241 36.7687 172.572 36.701 172.932 36.701C173.282 36.701 173.597 36.764 173.877 36.89C174.157 37.016 174.392 37.177 174.584 37.373C174.775 37.569 174.913 37.772 174.997 37.982L174.57 38.171C174.43 37.8583 174.217 37.6063 173.933 37.415C173.653 37.2237 173.319 37.128 172.932 37.128C172.535 37.128 172.18 37.2237 171.868 37.415C171.56 37.6063 171.319 37.8723 171.147 38.213C170.974 38.549 170.888 38.941 170.888 39.389C170.888 39.837 170.974 40.2313 171.147 40.572C171.319 40.9127 171.56 41.1787 171.868 41.37C172.18 41.5567 172.535 41.65 172.932 41.65C173.319 41.65 173.653 41.5567 173.933 41.37C174.217 41.1787 174.43 40.9267 174.57 40.614L174.997 40.803C174.913 41.0083 174.775 41.209 174.584 41.405C174.392 41.601 174.157 41.7643 173.877 41.895C173.597 42.021 173.282 42.084 172.932 42.084ZM177.777 42.084C177.445 42.084 177.147 42.021 176.881 41.895C176.619 41.769 176.4 41.6033 176.223 41.398C176.05 41.1927 175.926 40.971 175.852 40.733L176.258 40.586C176.388 40.9407 176.582 41.2113 176.839 41.398C177.1 41.5847 177.41 41.678 177.77 41.678C178.008 41.678 178.215 41.6383 178.393 41.559C178.575 41.4797 178.717 41.3677 178.82 41.223C178.922 41.0783 178.974 40.908 178.974 40.712C178.974 40.4413 178.897 40.2313 178.743 40.082C178.593 39.9327 178.397 39.8253 178.155 39.76L177.203 39.48C176.815 39.368 176.528 39.1883 176.342 38.941C176.16 38.689 176.069 38.4043 176.069 38.087C176.069 37.8117 176.134 37.5713 176.265 37.366C176.4 37.156 176.582 36.9927 176.811 36.876C177.039 36.7593 177.298 36.701 177.588 36.701C177.891 36.701 178.162 36.7593 178.4 36.876C178.642 36.988 178.845 37.1373 179.009 37.324C179.177 37.506 179.296 37.709 179.366 37.933L178.967 38.08C178.85 37.758 178.67 37.5153 178.428 37.352C178.185 37.184 177.907 37.1 177.595 37.1C177.389 37.1 177.205 37.1397 177.042 37.219C176.878 37.2983 176.75 37.4103 176.657 37.555C176.563 37.6997 176.517 37.87 176.517 38.066C176.517 38.304 176.584 38.507 176.72 38.675C176.855 38.843 177.081 38.976 177.399 39.074L178.253 39.326C178.626 39.438 178.913 39.6107 179.114 39.844C179.319 40.0727 179.422 40.355 179.422 40.691C179.422 40.9663 179.352 41.209 179.212 41.419C179.072 41.6243 178.876 41.7877 178.624 41.909C178.376 42.0257 178.094 42.084 177.777 42.084Z" fill="#3E3F40"/>
<path d="M12.3188 28.0127C12.4135 28.0127 12.4963 28.0279 12.5673 28.0584H17.2892C17.3602 28.0279 17.4431 28.0127 17.5377 28.0127C17.7034 27.9823 17.8691 27.9214 18.0348 27.8301C18.8158 27.3736 19.2419 26.2323 19.0999 25.1823C18.9579 24.3149 18.4253 23.6301 17.7863 23.4019C17.6916 23.3714 17.6087 23.341 17.5377 23.3105C17.4431 23.3105 17.3602 23.3105 17.2892 23.3105H12.5673C12.3543 23.3105 12.2833 23.3105 12.0703 23.4019C11.9046 23.4627 11.7508 23.5388 11.6087 23.6301C10.9697 24.1323 10.6147 25.1823 10.7567 26.141C10.9342 27.0997 11.5732 27.8758 12.3188 28.0127Z" fill="#2A9D8F"/>
<path d="M1.59725 9.06716C1.66826 9.06716 1.7511 9.06716 1.84577 9.06716H6.53216C6.62684 9.06716 6.70968 9.06716 6.78069 9.06716C6.94637 9.03673 7.11205 8.97586 7.27773 8.88455C8.09429 8.42803 8.52033 7.28673 8.34282 6.23673C8.2008 5.36934 7.66826 4.6389 7.02921 4.41064C6.9582 4.38021 6.87536 4.36499 6.78069 4.36499C6.70968 4.36499 6.62684 4.34977 6.53216 4.31934H1.84577C1.59725 4.36499 1.56175 4.31934 1.34873 4.41064C1.18305 4.47151 1.02921 4.56281 0.887195 4.68455C0.212638 5.18673 -0.106888 6.23673 0.0351236 7.19542C0.177135 8.15412 0.851692 8.93021 1.59725 9.06716Z" fill="#2A9D8F"/>
<path d="M5.71554 23.4019C5.64454 23.3715 5.5617 23.3411 5.46702 23.3106C5.39602 23.3106 5.31318 23.3106 5.2185 23.3106H2.66229C2.44927 23.3106 2.37827 23.3106 2.16525 23.4019C1.99957 23.4628 1.84572 23.5389 1.70371 23.6302C1.06466 24.1324 0.709627 25.1824 0.851639 26.1411C1.02915 27.0998 1.66821 27.8759 2.41377 28.0128C2.50844 28.0128 2.59128 28.028 2.66229 28.0585H5.2185C5.31318 28.028 5.39602 28.0128 5.46702 28.0128C5.6327 27.9824 5.79838 27.9215 5.96406 27.8302C6.74513 27.3737 7.20667 26.2324 7.02915 25.1824C6.88714 24.315 6.3546 23.6302 5.71554 23.4019Z" fill="#2A9D8F"/>
<path d="M14.9108 40.978C14.8398 40.9476 14.757 40.9172 14.6623 40.8867C14.5913 40.8867 14.5084 40.8867 14.4138 40.8867H11.8931C11.6445 40.8867 11.609 40.8867 11.3605 40.978C11.2185 41.0389 11.0765 41.115 10.9345 41.2063C10.2599 41.7541 9.90489 42.8041 10.0824 43.7172C10.2244 44.7215 10.8635 45.4519 11.609 45.5889C11.7037 45.6193 11.7984 45.6346 11.8931 45.6346H14.4138C14.5084 45.6346 14.5913 45.6193 14.6623 45.5889C14.828 45.5585 14.9936 45.4976 15.1593 45.4063C15.9404 44.9954 16.4019 43.8085 16.2244 42.7585C16.0824 41.8911 15.5499 41.2063 14.9108 40.978Z" fill="#2A9D8F"/>
<path fill-rule="evenodd" clip-rule="evenodd" d="M59.6446 15.5954V34.3585C59.6446 34.6324 59.6446 34.678 59.5736 34.9063C59.5026 35.2715 59.3251 35.5911 59.112 35.8193C59.041 35.8802 58.9819 35.9259 58.9345 35.9563L46.5085 45.2237C46.4138 45.2846 46.3073 45.3454 46.189 45.4063C46.189 45.4367 46.189 45.452 46.189 45.452C46.1416 45.452 46.1061 45.4672 46.0825 45.4976C45.9878 45.5585 45.8813 45.5889 45.7629 45.5889C45.7393 45.6193 45.7038 45.6346 45.6564 45.6346C45.6328 45.6346 45.5973 45.6346 45.5499 45.6346C45.5262 45.6346 45.5026 45.6346 45.4789 45.6346C45.4789 45.6346 45.4671 45.6346 45.4434 45.6346H20.5913C20.5203 45.6346 20.4375 45.6193 20.3428 45.5889C19.5973 45.452 18.9582 44.7215 18.7807 43.7172C18.6387 42.8041 18.9937 41.7541 19.6328 41.2063C19.7748 41.115 19.9286 41.0389 20.0943 40.978C20.3073 40.8867 20.3783 40.8867 20.5913 40.8867H25.2422C25.3369 40.8867 25.4197 40.8715 25.4907 40.8411C25.6564 40.8106 25.8221 40.765 25.9878 40.7041C26.7689 40.2476 27.2304 39.0606 27.0529 38.0106C26.9109 37.1889 26.3783 36.4585 25.7393 36.2302C25.6919 36.1998 25.6328 36.1846 25.5618 36.1846C25.4552 36.1846 25.3487 36.1389 25.2422 36.1389H9.51441C9.41974 36.1389 9.3369 36.1389 9.26589 36.1389C8.52033 36.0019 7.84578 35.2259 7.70376 34.2672C7.56175 33.3085 7.88128 32.2585 8.55583 31.7563C8.69785 31.6346 8.85169 31.5433 9.01737 31.4824C9.23039 31.3911 9.3014 31.4367 9.51441 31.3911H32.8399C33.5499 31.3911 34.1535 32.0302 34.2955 32.8976C34.331 33.1715 34.473 33.3998 34.6505 33.5367L40.0115 37.5541C41.8221 38.878 44.1298 37.1889 44.1298 34.4954V30.2498C44.1298 27.6476 43.0292 25.228 41.2896 23.9498L34.757 19.1106C34.544 18.928 34.331 19.1106 34.331 19.3846V26.1411C34.331 27.1911 33.6564 28.0585 32.8399 28.0585H23.5026C23.4316 28.028 23.3487 28.0128 23.2541 28.0128C22.5085 27.8759 21.8694 27.0998 21.6919 26.1411C21.5499 25.1824 21.9049 24.1324 22.544 23.6302C22.686 23.5389 22.8399 23.4628 23.0055 23.4019C23.2186 23.3106 23.2896 23.3106 23.5026 23.3106H27.3014C27.3724 23.3106 27.4552 23.2954 27.5499 23.265C27.7156 23.2346 27.8694 23.1737 28.0115 23.0824C28.828 22.6715 29.2541 21.4846 29.112 20.4346C28.97 19.5672 28.4375 18.8824 27.7984 18.6541C27.7274 18.6237 27.6564 18.6085 27.5854 18.6085C27.5144 18.5628 27.3724 18.5628 27.3014 18.5628H1.84577C1.7511 18.5628 1.66826 18.5476 1.59725 18.5172C0.851692 18.3802 0.177135 17.6498 0.0351236 16.6454C-0.106888 15.7324 0.212638 14.6824 0.887195 14.1802C1.02921 14.0585 1.18305 13.9672 1.34873 13.9063C1.56175 13.815 1.59725 13.815 1.84577 13.815H22.97C23.0647 13.815 23.1476 13.815 23.2186 13.815C23.3842 13.7846 23.5499 13.7237 23.7156 13.6324C24.5322 13.1759 24.9582 11.9889 24.7807 10.9389C24.6387 10.1172 24.1061 9.38673 23.4671 9.15847C23.4197 9.12803 23.3606 9.11281 23.2896 9.11281C23.2186 9.11281 23.0765 9.06716 22.97 9.06716H14.4138C14.3428 9.06716 14.26 9.06716 14.1653 9.06716C13.4197 8.93021 12.7807 8.15412 12.6032 7.19542C12.4612 6.23673 12.8162 5.18673 13.4552 4.68455C13.5973 4.56281 13.7511 4.47151 13.9168 4.41064C14.1298 4.31934 14.2008 4.36499 14.4138 4.31934H45.4079C45.4316 4.31934 45.4552 4.31934 45.4789 4.31934C45.5262 4.31934 45.5854 4.31934 45.6564 4.31934C45.8339 4.36499 45.9049 4.36499 46.0825 4.45629C46.1535 4.48673 46.2126 4.53238 46.26 4.59325L58.9345 13.9519C58.9345 13.9824 58.9464 13.9976 58.97 13.9976C58.9937 14.028 59.0055 14.0432 59.0055 14.0432C59.112 14.1346 59.1475 14.1802 59.2541 14.3172C59.4671 14.5911 59.5736 14.9563 59.6446 15.3215C59.6446 15.3519 59.6446 15.3976 59.6446 15.4585C59.6446 15.4889 59.6446 15.5193 59.6446 15.5498C59.6446 15.5498 59.6446 15.565 59.6446 15.5954ZM45.0529 8.65629L43.3487 9.93455C43.1712 10.0715 43.1712 10.4367 43.3487 10.5737L52.26 17.1476C52.544 17.3759 52.899 17.3759 53.2186 17.1476L54.9582 15.8693C55.1357 15.7324 55.1357 15.4128 54.9582 15.2759L46.047 8.65629C45.7274 8.42803 45.3724 8.42803 45.0529 8.65629ZM46.047 22.4889L47.7866 21.165C47.9641 21.0737 47.9641 20.7541 47.7866 20.6172L38.8754 13.9976C38.5558 13.7693 38.2008 13.7693 37.8813 13.9976L36.1771 15.2759C35.9996 15.4128 35.9996 15.7324 36.1771 15.8693L45.0529 22.4889C45.3724 22.7172 45.7274 22.7172 46.047 22.4889ZM56.7688 20.2519C56.7688 19.6128 56.2363 19.2019 55.7748 19.5215L54.1771 20.7085V28.0585C54.1771 28.378 54.0351 28.6519 53.8221 28.8346L50.2718 31.4367C49.9523 31.665 49.5972 31.3911 49.5972 30.9346C49.5972 29.3824 49.5972 26.278 49.5972 24.0867L47.3251 25.7759C47.112 25.9585 47.0055 26.2324 47.0055 26.5519V39.1063C47.0055 39.7454 47.5381 40.1563 47.9641 39.8367L56.4493 33.5367C56.6623 33.3998 56.7688 33.1259 56.7688 32.8063V20.2519Z" fill="#2A9D8F"/>
</svg>
